<?xml version="1.0" encoding="UTF-8" standalone="no"?>
<svg
   xmlns:dc="http://purl.org/dc/elements/1.1/"
   xmlns:cc="http://creativecommons.org/ns#"
   xmlns:rdf="http://www.w3.org/1999/02/22-rdf-syntax-ns#"
   xmlns:svg="http://www.w3.org/2000/svg"
   xmlns="http://www.w3.org/2000/svg"
   version="1.1"
   id="svg6075"
   viewBox="0 0 96.777075 69.271002"
   height="19.549816mm"
   width="27.312641mm">
  <defs
     id="defs6077" />
  <metadata
     id="metadata6080">
    <rdf:RDF>
      <cc:Work
         rdf:about="">
        <dc:format>image/svg+xml</dc:format>
        <dc:type
           rdf:resource="http://purl.org/dc/dcmitype/StillImage" />
        <dc:title></dc:title>
      </cc:Work>
    </rdf:RDF>
  </metadata>
  <g
     transform="translate(-240.18289,-332.01242)"
     id="layer1">
    <g
       transform="translate(192.65822,281.26142)"
       id="g6624">
      <g
         id="g6626">
        <g
           id="g6628">
          <path
             style="fill:#233e99"
             d="m 144.27,51.518 c 0.062,-0.186 0.031,-0.376 -0.074,-0.527 -0.108,-0.15 -0.284,-0.24 -0.47,-0.24 l -12.258,0 c -0.257,0 -0.486,0.17 -0.567,0.421 l -15.817,51.669 -0.256,-0.757 -17.413,-50.942 c -0.074,-0.23 -0.304,-0.391 -0.547,-0.391 l -11.843,0 c -0.19,0 -0.374,0.096 -0.475,0.249 -0.116,0.153 -0.144,0.354 -0.076,0.533 l 5.91,16.277 -0.032,0.089 -12.917,35.035 -0.229,-0.721 L 61.055,51.16 c -0.08,-0.241 -0.304,-0.409 -0.558,-0.409 l -12.392,0 c -0.186,0 -0.351,0.085 -0.467,0.24 -0.112,0.15 -0.143,0.349 -0.084,0.531 l 23.154,68.11 c 0.084,0.233 0.306,0.39 0.558,0.39 l 11.562,0 c 0.254,0 0.468,-0.149 0.555,-0.393 l 12.797,-35.522 12.67,35.522 c 0.078,0.238 0.298,0.393 0.549,0.393 l 11.712,0 c 0.251,0 0.47,-0.162 0.554,-0.409 L 144.27,51.518 Z"
             id="path6630" />
        </g>
      </g>
    </g>
  </g>
</svg>
