<?xml version="1.0" encoding="utf-8"?>
<!-- Generator: Adobe Illustrator 16.0.0, SVG Export Plug-In . SVG Version: 6.00 Build 0)  -->
<!DOCTYPE svg PUBLIC "-//W3C//DTD SVG 1.1//EN" "http://www.w3.org/Graphics/SVG/1.1/DTD/svg11.dtd">
<svg version="1.1" id="Layer_1" xmlns="http://www.w3.org/2000/svg" xmlns:xlink="http://www.w3.org/1999/xlink" x="0px" y="0px"
	 width="182.273px" height="167.755px" viewBox="0 0 182.273 167.755" enable-background="new 0 0 182.273 167.755"
	 xml:space="preserve">
<g>
	<g>
		<g>
			<path fill="#FFFFFF" d="M139.626,58.972c0.062-0.186,0.031-0.376-0.074-0.527c-0.108-0.15-0.284-0.24-0.47-0.24h-12.258
				c-0.257,0-0.486,0.17-0.567,0.421l-15.817,51.669l-0.256-0.757L92.771,58.596c-0.074-0.23-0.304-0.391-0.547-0.391H80.382
				c-0.19,0-0.374,0.096-0.475,0.249c-0.116,0.153-0.144,0.354-0.076,0.533l5.91,16.277l-0.032,0.089l-12.917,35.035l-0.229-0.721
				L56.411,58.614c-0.08-0.241-0.304-0.409-0.558-0.409H43.462c-0.186,0-0.351,0.085-0.467,0.24
				c-0.112,0.15-0.143,0.349-0.084,0.531l23.154,68.11c0.084,0.233,0.306,0.39,0.558,0.39h11.562c0.254,0,0.468-0.149,0.555-0.393
				l12.797-35.522l12.67,35.522c0.078,0.238,0.298,0.393,0.549,0.393h11.712c0.251,0,0.47-0.162,0.554-0.409L139.626,58.972z"/>
		</g>
	</g>
</g>
</svg>
