<?xml version="1.0" encoding="UTF-8" standalone="no"?>
<svg
   xmlns:dc="http://purl.org/dc/elements/1.1/"
   xmlns:cc="http://creativecommons.org/ns#"
   xmlns:rdf="http://www.w3.org/1999/02/22-rdf-syntax-ns#"
   xmlns:svg="http://www.w3.org/2000/svg"
   xmlns="http://www.w3.org/2000/svg"
   version="1.1"
   id="svg5455"
   viewBox="0 0 96.777075 69.272002"
   height="19.550098mm"
   width="27.312641mm">
  <defs
     id="defs5457" />
  <metadata
     id="metadata5460">
    <rdf:RDF>
      <cc:Work
         rdf:about="">
        <dc:format>image/svg+xml</dc:format>
        <dc:type
           rdf:resource="http://purl.org/dc/dcmitype/StillImage" />
        <dc:title></dc:title>
      </cc:Work>
    </rdf:RDF>
  </metadata>
  <g
     transform="translate(-91.611463,-332.01192)"
     id="layer1">
    <g
       transform="translate(57.337796,245.52692)"
       id="g6004">
      <g
         id="g6006">
        <g
           id="g6008">
          <path
             d="m 131.019,87.253 c 0.062,-0.186 0.031,-0.376 -0.074,-0.527 -0.108,-0.15 -0.284,-0.24 -0.47,-0.24 l -12.258,0 c -0.257,0 -0.486,0.17 -0.567,0.421 l -15.817,51.669 -0.256,-0.757 L 84.164,86.876 C 84.09,86.646 83.86,86.485 83.617,86.485 l -11.843,0 c -0.19,0 -0.374,0.096 -0.475,0.249 -0.116,0.153 -0.144,0.354 -0.076,0.533 l 5.91,16.277 -0.032,0.089 -12.917,35.035 -0.229,-0.721 L 47.804,86.895 C 47.724,86.654 47.5,86.486 47.246,86.486 l -12.392,0 c -0.186,0 -0.351,0.085 -0.467,0.24 -0.112,0.15 -0.143,0.349 -0.084,0.531 l 23.154,68.11 c 0.084,0.233 0.306,0.39 0.558,0.39 l 11.562,0 c 0.254,0 0.468,-0.149 0.555,-0.393 l 12.797,-35.522 12.67,35.522 c 0.078,0.238 0.298,0.393 0.549,0.393 l 11.712,0 c 0.251,0 0.47,-0.162 0.554,-0.409 l 22.605,-68.095 z"
             id="path6010" />
        </g>
      </g>
    </g>
  </g>
</svg>
