<?xml version="1.0" encoding="utf-8"?>
<!-- Generator: Adobe Illustrator 16.0.0, SVG Export Plug-In . SVG Version: 6.00 Build 0)  -->
<!DOCTYPE svg PUBLIC "-//W3C//DTD SVG 1.1//EN" "http://www.w3.org/Graphics/SVG/1.1/DTD/svg11.dtd">
<svg version="1.1" id="Layer_1" xmlns="http://www.w3.org/2000/svg" xmlns:xlink="http://www.w3.org/1999/xlink" x="0px" y="0px"
	 width="792px" height="612px" viewBox="0 0 792 612" enable-background="new 0 0 792 612" xml:space="preserve">
<g>
	<g>
		<g>
			<path fill="#FFFFFF" d="M262.642,296.267c0.062-0.186,0.031-0.376-0.074-0.527c-0.108-0.15-0.284-0.24-0.47-0.24H249.84
				c-0.257,0-0.486,0.17-0.567,0.421l-15.817,51.669l-0.256-0.757l-17.412-50.942c-0.074-0.23-0.304-0.391-0.547-0.391h-11.843
				c-0.19,0-0.374,0.096-0.475,0.249c-0.116,0.153-0.144,0.354-0.076,0.533l5.91,16.277l-0.032,0.089l-12.917,35.035l-0.229-0.721
				l-16.152-51.054c-0.08-0.241-0.304-0.409-0.558-0.409h-12.392c-0.186,0-0.351,0.085-0.467,0.24
				c-0.112,0.15-0.143,0.349-0.084,0.531l23.154,68.11c0.084,0.233,0.306,0.39,0.558,0.39h11.562c0.254,0,0.468-0.149,0.555-0.393
				l12.797-35.522l12.67,35.522c0.078,0.238,0.298,0.393,0.549,0.393h11.712c0.251,0,0.47-0.162,0.554-0.409L262.642,296.267z"/>
			<path fill="#FFFFFF" d="M341.222,295.5h-10.351c-0.279,0-0.515,0.2-0.574,0.473l-1.507,7.371l-0.341-0.373
				c-2.061-2.236-4.776-4.248-8.074-5.969c-3.959-2.082-8.721-3.136-14.154-3.136c-9.935,0-18.237,3.52-24.676,10.473
				c-6.431,6.937-9.692,15.618-9.692,25.795c0,10.266,3.165,18.968,9.41,25.86c6.269,6.908,14.667,10.414,24.958,10.414
				c4.956,0,9.622-1.073,13.884-3.198c3.501-1.755,6.307-3.87,8.337-6.291l0.346-0.42l1.51,7.8c0.051,0.269,0.3,0.472,0.574,0.472
				h10.351c0.319,0,0.577-0.261,0.577-0.592v-68.098C341.799,295.761,341.541,295.5,341.222,295.5z M323.283,347.319
				c-4.086,4.569-9.419,6.894-15.847,6.894c-6.513,0-11.861-2.318-15.903-6.888c-4.054-4.573-6.112-10.357-6.112-17.191
				c0-6.827,2.059-12.608,6.112-17.179c4.036-4.573,9.385-6.89,15.903-6.89c6.438,0,11.77,2.317,15.847,6.89
				c4.102,4.583,6.182,10.365,6.182,17.179C329.464,336.962,327.384,342.742,323.283,347.319z"/>
			<path fill="#FFFFFF" d="M415.083,352.569h-36.28l35.771-46.463c0.087-0.098,0.127-0.22,0.127-0.353v-9.672
				c0-0.32-0.265-0.582-0.588-0.582h-49.161c-0.322,0-0.587,0.262-0.587,0.582v11.035c0,0.32,0.265,0.582,0.587,0.582h32.46
				l-35.655,46.467c-0.075,0.117-0.118,0.236-0.118,0.354v9.661c0,0.331,0.262,0.592,0.587,0.592h52.857
				c0.312,0,0.569-0.261,0.569-0.592v-11.028C415.653,352.833,415.395,352.569,415.083,352.569z"/>
			<path fill="#FFFFFF" d="M490.329,304.333c-6.711-6.947-15.374-10.467-25.749-10.467c-10.38,0-19.023,3.52-25.686,10.467
				c-6.661,6.926-10.039,15.609-10.039,25.801c0,10.202,3.378,18.882,10.039,25.799c6.663,6.951,15.306,10.475,25.686,10.475
				c10.375,0,19.036-3.524,25.749-10.475c6.707-6.93,10.107-15.608,10.107-25.799C500.436,319.95,497.036,311.271,490.329,304.333z
				 M480.496,347.433c-4.216,4.499-9.573,6.78-15.916,6.78c-6.334,0-11.667-2.275-15.858-6.764
				c-4.186-4.501-6.308-10.319-6.308-17.315c0-6.995,2.123-12.818,6.308-17.307c4.187-4.487,9.52-6.762,15.858-6.762
				c6.343,0,11.698,2.274,15.916,6.762c4.237,4.502,6.388,10.323,6.388,17.307C486.884,337.129,484.733,342.945,480.496,347.433z"/>
		</g>
		<path fill="#FFFFFF" d="M625.924,268.979l-10.794-2.542c0.451,1.377,0.753,2.823,0.846,4.337c0.128,2.159-0.197,4.366-0.822,6.319
			v0.036c-0.016,0.062-0.035,0.12-0.035,0.186c0,0.236,0.133,0.434,0.326,0.544l0.01,0.025c0,0,0.012,0.003,0.034,0.009
			c0.082,0.037,0.171,0.063,0.268,0.063c0.134,0,0.247-0.055,0.349-0.121c0.021-0.003,0.035-0.008,0.035-0.008l0.249-0.204
			l0.221-0.165l9.411-8.084c0.063-0.054,0.095-0.143,0.074-0.228C626.075,269.066,626.006,269.001,625.924,268.979z"/>
		<g>
			<path fill="#FFFFFF" d="M525.613,245.592l-0.349,0.601c-3.312,5.659-1.396,12.964,4.267,16.281l3.506,2.047
				c-0.804,1.502-1.244,3.107-1.359,4.719l46.998,7.384L525.613,245.592z"/>
		</g>
	</g>
	<path fill="#FFFFFF" d="M523.657,339.242c3.73,3.896,9.413,4.896,14.146,2.827l3.785-12.29
		c15.081,12.472,37.41,12.178,52.135-1.497c11.16-10.375,14.98-25.673,11.255-39.414c4.083-1.987,7.112-5.695,8.172-10.148
		c0.062-0.252,0.123-0.5,0.172-0.761c0.053-0.293,0.102-0.585,0.136-0.885c0.067-0.523,0.109-1.056,0.119-1.595
		c0-0.067,0.013-0.128,0.013-0.196c0-0.014-0.001-0.025-0.001-0.035c0-0.018,0.001-0.037,0.001-0.051c0-0.761-0.074-1.5-0.187-2.232
		c-0.007-0.055-0.015-0.109-0.024-0.162c-1.173-7.198-7.512-12.706-15.185-12.706c-0.014,0-0.027,0.003-0.041,0.003
		c-0.016,0-0.03-0.003-0.045-0.003c-0.061,0-0.116,0.011-0.176,0.011c-0.288,0.001-0.58,0.019-0.871,0.041
		c-0.022,0.003-0.047,0.006-0.07,0.008c-0.335,0.025-0.667,0.066-0.995,0.113c-0.123,0.019-0.249,0.024-0.369,0.042
		c-0.051,0.008-0.102,0.005-0.151,0.015c-0.023,0.005-0.046,0.011-0.066,0.014c-0.067,0.016-0.133,0.035-0.2,0.046
		c-0.117,0.025-0.233,0.05-0.351,0.079c-6.986,1.464-12.231,7.528-12.231,14.817c0,1.091,0.156,2.152,0.385,3.18l0.159,0.664
		c0.028,0.107,0.047,0.217,0.047,0.34c0,0.689-0.534,1.304-1.24,1.226l-0.584-0.083l-69.9-11.041l-0.107,0.722
		c-1.082,6.805,3.588,13.23,10.4,14.307l4.217,0.664c-0.79,6.633,3.805,12.78,10.453,13.825l4.218,0.668
		c-0.788,6.632,3.801,12.778,10.457,13.83l0.182,0.026L523.657,339.242z"/>
</g>
</svg>
