<?xml version="1.0" encoding="utf-8"?>
<!-- Generator: Adobe Illustrator 16.0.0, SVG Export Plug-In . SVG Version: 6.00 Build 0)  -->
<!DOCTYPE svg PUBLIC "-//W3C//DTD SVG 1.1//EN" "http://www.w3.org/Graphics/SVG/1.1/DTD/svg11.dtd">
<svg version="1.1" id="Layer_1" xmlns="http://www.w3.org/2000/svg" xmlns:xlink="http://www.w3.org/1999/xlink" x="0px" y="0px"
	 width="216px" height="216px" viewBox="0 0 216 216" enable-background="new 0 0 216 216" xml:space="preserve">
<g>
	<g>
		<path fill="#FFFFFF" d="M183.203,74.669l-14.177-3.339c0.592,1.809,0.989,3.708,1.111,5.696c0.168,2.836-0.259,5.734-1.08,8.3
			v0.047c-0.021,0.081-0.046,0.157-0.046,0.244c0,0.309,0.174,0.57,0.429,0.714l0.013,0.033c0,0,0.016,0.004,0.044,0.012
			c0.107,0.048,0.224,0.082,0.351,0.082c0.176,0,0.325-0.071,0.458-0.158c0.027-0.004,0.046-0.01,0.046-0.01l0.327-0.268l0.29-0.217
			l12.36-10.617c0.083-0.071,0.125-0.188,0.098-0.299C183.401,74.783,183.311,74.698,183.203,74.669z"/>
		<g>
			<path fill="#FFFFFF" d="M51.456,43.953l-0.458,0.79c-4.35,7.433-1.833,17.027,5.604,21.383l4.604,2.688
				c-1.056,1.973-1.634,4.081-1.786,6.198l61.727,9.698L51.456,43.953z"/>
		</g>
	</g>
	<path fill="#FFFFFF" d="M48.886,166.952c4.9,5.117,12.363,6.43,18.579,3.712l4.971-16.141c19.807,16.38,49.133,15.994,68.474-1.966
		c14.657-13.626,19.675-33.718,14.782-51.766c5.363-2.61,9.341-7.479,10.733-13.328c0.082-0.331,0.162-0.657,0.226-0.999
		c0.069-0.386,0.133-0.769,0.178-1.163c0.088-0.687,0.144-1.386,0.156-2.095c0-0.089,0.017-0.169,0.017-0.258
		c0-0.019-0.001-0.033-0.001-0.046c0-0.022,0.001-0.047,0.001-0.066c0-1-0.097-1.97-0.245-2.932
		c-0.009-0.072-0.02-0.144-0.032-0.213c-1.541-9.453-9.866-16.687-19.943-16.687c-0.018,0-0.035,0.004-0.054,0.004
		c-0.021,0-0.039-0.004-0.059-0.004c-0.079,0-0.152,0.014-0.23,0.014c-0.378,0.001-0.762,0.024-1.144,0.054
		c-0.03,0.004-0.062,0.007-0.093,0.01c-0.439,0.033-0.875,0.087-1.307,0.148c-0.161,0.025-0.327,0.032-0.485,0.055
		c-0.067,0.011-0.134,0.008-0.199,0.021c-0.031,0.007-0.06,0.014-0.087,0.018c-0.088,0.02-0.174,0.045-0.262,0.06
		c-0.153,0.033-0.306,0.066-0.461,0.104c-9.176,1.923-16.065,9.888-16.065,19.46c0,1.433,0.206,2.826,0.505,4.177l0.209,0.871
		c0.037,0.141,0.061,0.286,0.061,0.447c0,0.905-0.702,1.713-1.628,1.61l-0.767-0.109l-91.807-14.5l-0.141,0.948
		c-1.421,8.938,4.712,17.376,13.66,18.791l5.539,0.873c-1.038,8.711,4.997,16.785,13.729,18.157l5.54,0.878
		c-1.035,8.711,4.992,16.783,13.734,18.164l0.238,0.034L48.886,166.952z"/>
</g>
</svg>
