<?xml version="1.0" encoding="UTF-8" standalone="no"?>
<svg
   xmlns:dc="http://purl.org/dc/elements/1.1/"
   xmlns:cc="http://creativecommons.org/ns#"
   xmlns:rdf="http://www.w3.org/1999/02/22-rdf-syntax-ns#"
   xmlns:svg="http://www.w3.org/2000/svg"
   xmlns="http://www.w3.org/2000/svg"
   version="1.1"
   id="svg4223"
   viewBox="0 0 334.53934 72.542002"
   height="20.472965mm"
   width="94.414436mm">
  <defs
     id="defs4225" />
  <metadata
     id="metadata4228">
    <rdf:RDF>
      <cc:Work
         rdf:about="">
        <dc:format>image/svg+xml</dc:format>
        <dc:type
           rdf:resource="http://purl.org/dc/dcmitype/StillImage" />
        <dc:title></dc:title>
      </cc:Work>
    </rdf:RDF>
  </metadata>
  <g
     transform="translate(121.55538,-504.66263)"
     id="layer1">
    <g
       transform="translate(-287.45205,210.79663)"
       id="g4772">
      <g
         id="g4774">
        <g
           id="g4776">
          <path
             style="fill:#233e99"
             d="m 262.642,296.267 c 0.062,-0.186 0.031,-0.376 -0.074,-0.527 -0.108,-0.15 -0.284,-0.24 -0.47,-0.24 l -12.258,0 c -0.257,0 -0.486,0.17 -0.567,0.421 l -15.817,51.669 -0.256,-0.757 -17.412,-50.942 c -0.074,-0.23 -0.304,-0.391 -0.547,-0.391 l -11.843,0 c -0.19,0 -0.374,0.096 -0.475,0.249 -0.116,0.153 -0.144,0.354 -0.076,0.533 l 5.91,16.277 -0.032,0.089 -12.917,35.035 -0.229,-0.721 -16.152,-51.054 c -0.08,-0.241 -0.304,-0.409 -0.558,-0.409 l -12.392,0 c -0.186,0 -0.351,0.085 -0.467,0.24 -0.112,0.15 -0.143,0.349 -0.084,0.531 l 23.154,68.11 c 0.084,0.233 0.306,0.39 0.558,0.39 l 11.562,0 c 0.254,0 0.468,-0.149 0.555,-0.393 l 12.797,-35.522 12.67,35.522 c 0.078,0.238 0.298,0.393 0.549,0.393 l 11.712,0 c 0.251,0 0.47,-0.162 0.554,-0.409 l 22.605,-68.094 z"
             id="path4778" />
          <path
             style="fill:#233e99"
             d="m 341.222,295.5 -10.351,0 c -0.279,0 -0.515,0.2 -0.574,0.473 l -1.507,7.371 -0.341,-0.373 c -2.061,-2.236 -4.776,-4.248 -8.074,-5.969 -3.959,-2.082 -8.721,-3.136 -14.154,-3.136 -9.935,0 -18.237,3.52 -24.676,10.473 -6.431,6.937 -9.692,15.618 -9.692,25.795 0,10.266 3.165,18.968 9.41,25.86 6.269,6.908 14.667,10.414 24.958,10.414 4.956,0 9.622,-1.073 13.884,-3.198 3.501,-1.755 6.307,-3.87 8.337,-6.291 l 0.346,-0.42 1.51,7.8 c 0.051,0.269 0.3,0.472 0.574,0.472 l 10.351,0 c 0.319,0 0.577,-0.261 0.577,-0.592 l 0,-68.098 c -0.001,-0.32 -0.259,-0.581 -0.578,-0.581 z m -17.939,51.819 c -4.086,4.569 -9.419,6.894 -15.847,6.894 -6.513,0 -11.861,-2.318 -15.903,-6.888 -4.054,-4.573 -6.112,-10.357 -6.112,-17.191 0,-6.827 2.059,-12.608 6.112,-17.179 4.036,-4.573 9.385,-6.89 15.903,-6.89 6.438,0 11.77,2.317 15.847,6.89 4.102,4.583 6.182,10.365 6.182,17.179 -10e-4,6.828 -2.081,12.608 -6.182,17.185 z"
             id="path4780" />
          <path
             style="fill:#233e99"
             d="m 415.083,352.569 -36.28,0 35.771,-46.463 c 0.087,-0.098 0.127,-0.22 0.127,-0.353 l 0,-9.672 c 0,-0.32 -0.265,-0.582 -0.588,-0.582 l -49.161,0 c -0.322,0 -0.587,0.262 -0.587,0.582 l 0,11.035 c 0,0.32 0.265,0.582 0.587,0.582 l 32.46,0 -35.655,46.467 c -0.075,0.117 -0.118,0.236 -0.118,0.354 l 0,9.661 c 0,0.331 0.262,0.592 0.587,0.592 l 52.857,0 c 0.312,0 0.569,-0.261 0.569,-0.592 l 0,-11.028 c 0.001,-0.319 -0.257,-0.583 -0.569,-0.583 z"
             id="path4782" />
          <path
             style="fill:#233e99"
             d="m 490.329,304.333 c -6.711,-6.947 -15.374,-10.467 -25.749,-10.467 -10.38,0 -19.023,3.52 -25.686,10.467 -6.661,6.926 -10.039,15.609 -10.039,25.801 0,10.202 3.378,18.882 10.039,25.799 6.663,6.951 15.306,10.475 25.686,10.475 10.375,0 19.036,-3.524 25.749,-10.475 6.707,-6.93 10.107,-15.608 10.107,-25.799 0,-10.184 -3.4,-18.863 -10.107,-25.801 z m -9.833,43.1 c -4.216,4.499 -9.573,6.78 -15.916,6.78 -6.334,0 -11.667,-2.275 -15.858,-6.764 -4.186,-4.501 -6.308,-10.319 -6.308,-17.315 0,-6.995 2.123,-12.818 6.308,-17.307 4.187,-4.487 9.52,-6.762 15.858,-6.762 6.343,0 11.698,2.274 15.916,6.762 4.237,4.502 6.388,10.323 6.388,17.307 0,6.995 -2.151,12.811 -6.388,17.299 z"
             id="path4784" />
        </g>
      </g>
    </g>
  </g>
</svg>
